# xmcd
#
# Track frame offsets: 
#        150
#        14195
#        36034
#        50087
#        66726
#        83340
#        102788
#        118777
#        144196
#        166126
#        184335
#        202120
#        216437
#
# Disc length: 3139 seconds
#
# Revision: 4
# Processed by: cddbd v1.5.1PL0 Copyright (c) Steve Scherf et al.
# Submitted via: ExactAudioCopy v0.95a5
#
DISCID=c20c410d
DTITLE=Kimmie Rhodes - West Texas Heaven
DYEAR=1996
DGENRE=Country
TTITLE0=West Texas Heaven
TTITLE1=Hard promises to keep
TTITLE2=Wild roses
TTITLE3=Just to be near you
TTITLE4=Maybe we'll just disappear
TTITLE5=Be mine
TTITLE6=Git you a job
TTITLE7=I never heard you say
TTITLE8=The corner of the bar
TTITLE9=Home John
TTITLE10=I'm gonna fly
TTITLE11=Les roses sauvages
TTITLE12=I'm not an angel
EXTD=
EXTT0=
EXTT1=with Willie Nelson
EXTT2=
EXTT3=
EXTT4=with Waylon Jennings
EXTT5=with Waylon Jennings
EXTT6=
EXTT7=with Willie Nelson
EXTT8=
EXTT9=
EXTT10=with Townes Van Zandt
EXTT11=
EXTT12=
PLAYORDER=
